<svg width="262" height="233" viewBox="0 0 262 233" fill="none" xmlns="http://www.w3.org/2000/svg">
<path d="M138.572 4.32243C148.319 0.052341 157.133 -0.255859 166.061 1.83827C186.173 6.57504 198.865 21.4462 199.138 41.0038C199.422 61.5706 190.641 78.9342 174.829 93.5569C166.154 101.583 156.05 107.899 145.161 113.273C143.546 114.063 141.848 115.904 141.541 117.466C137.869 136.54 134.196 155.614 131.06 174.747C129.305 185.457 128.434 196.284 127.342 207.081C127.127 209.184 127.717 211.346 128.034 214.574C133.033 212.617 137.618 211.426 141.498 209.209C155.906 201.005 170.047 192.402 184.361 184.07C195.049 177.842 205.753 171.629 216.677 165.729C220.049 163.908 224.049 162.828 227.922 161.99C238.813 159.643 247.48 163.555 251.147 173.12C253.566 179.411 254.419 186.165 256.269 192.653C256.952 195.043 258.094 197.449 259.648 199.459C261.846 202.296 262.75 204.971 260.572 208.019C258.569 210.825 254.109 212.315 250.707 210.412C247.573 208.667 244.426 206.111 242.797 203.234C240.369 198.932 239.223 194.025 237.602 189.357C236.792 187.023 236.092 184.647 235.472 182.257C234.649 179.084 232.648 178.125 229.545 179.762C219.778 184.885 209.87 189.794 200.417 195.344C184.456 204.707 169.028 214.84 152.879 223.947C146.324 227.647 138.731 230.404 131.191 232.039C118.656 234.778 109.492 228.817 106.955 217.451C104.618 207.025 105.883 196.555 107.588 186.229C110.805 166.698 114.59 147.255 118.122 127.768C118.365 126.405 118.498 125.013 118.727 123.194C113.116 124.31 108.01 125.428 102.874 126.305C88.0971 128.836 73.2662 129.392 58.4025 126.778C41.3772 123.773 27.0252 116.343 15.0751 105.141C-6.02615 85.3497 -3.60416 56.635 20.6963 40.111C33.1 31.6723 46.9458 25.5698 62.3996 23.4813C95.8514 18.9585 132.613 36.4066 140.328 72.1945C140.591 73.432 140.933 74.6413 141.398 76.4765C152.574 67.152 160.928 56.9074 165.218 44.2315C170.565 28.4185 168.477 22.4699 153.899 12.5661C150.719 10.4081 147.079 8.78854 143.645 6.94229C142.353 6.26948 141.045 5.61079 138.572 4.32243ZM71.2311 104.939C86.1547 104.824 100.211 100.982 113.473 94.7636C123.254 90.1809 121.351 91.7656 120.349 83.0069C119.105 72.0443 115.963 61.7 106.683 53.6636C82.0355 32.2811 48.2164 37.7121 27.4873 57.1346C18.1774 65.8549 19.0168 79.0474 28.5294 88.0227C40.0706 98.8531 54.2405 104.662 71.2311 104.939Z" fill="white"/>
<path d="M174.829 93.5569L174.49 93.1899C190.218 78.6447 198.92 61.4105 198.638 41.0112C198.368 21.7046 185.857 7.01455 165.946 2.32506C157.41 0.323001 148.997 0.539919 139.743 4.36716C140.538 4.77938 141.198 5.11935 141.78 5.41843L142.156 5.61144C142.788 5.93583 143.333 6.21608 143.876 6.49878L143.882 6.50182C144.891 7.04438 145.928 7.5719 146.972 8.10274C149.432 9.35414 151.928 10.624 154.18 12.1523L154.181 12.1524C161.476 17.1086 165.767 21.1489 167.502 26.0146C169.239 30.8878 168.37 36.4717 165.692 44.3913L165.692 44.3914C161.362 57.1831 152.938 67.4995 141.718 76.8603L141.108 77.369L140.913 76.5998C140.77 76.034 140.638 75.525 140.515 75.0544C140.244 74.0128 140.022 73.1599 139.839 72.2989C132.194 36.8417 95.7424 19.4778 62.4662 23.9768C47.1038 26.053 33.3302 32.1201 20.9773 40.5243L20.9772 40.5244C8.93453 48.7132 2.3491 59.8944 1.35823 71.4431C0.367434 82.991 4.96457 94.9725 15.4173 104.777C27.2981 115.913 41.5619 123.298 58.4896 126.286C73.2844 128.887 88.056 128.336 102.79 125.812L102.79 125.812C106.388 125.198 109.966 124.466 113.724 123.698C115.322 123.371 116.952 123.038 118.63 122.704L119.31 122.569L119.223 123.256C119.159 123.77 119.101 124.252 119.047 124.712C118.91 125.863 118.79 126.87 118.614 127.856L118.614 127.857C117.524 133.871 116.41 139.879 115.297 145.885C112.8 159.35 110.305 172.807 108.082 186.309L108.082 186.31C106.377 196.631 105.129 207.017 107.443 217.342L107.443 217.342C108.687 222.916 111.544 227.122 115.586 229.608C119.629 232.096 124.916 232.898 131.085 231.55L131.086 231.55C138.583 229.925 146.127 227.184 152.633 223.512L152.633 223.512C161.88 218.298 170.867 212.761 179.862 207.219C186.587 203.076 193.317 198.93 200.164 194.913C207.3 190.723 214.699 186.896 222.087 183.074C224.5 181.826 226.912 180.579 229.313 179.319C229.313 179.319 229.313 179.319 229.313 179.319L229.545 179.762C232.648 178.125 234.649 179.084 235.472 182.257L174.829 93.5569ZM174.829 93.5569L174.49 93.19C165.861 101.173 155.802 107.463 144.941 112.824C144.066 113.252 143.187 113.954 142.486 114.75C141.79 115.54 141.228 116.469 141.05 117.37L141.05 117.372L141.049 117.38C137.377 136.45 133.703 155.528 130.567 174.667L131.06 174.747L130.567 174.667C129.16 183.252 128.32 191.916 127.481 200.56C127.272 202.719 127.063 204.876 126.845 207.031M126.845 207.031C126.845 207.031 126.845 207.031 126.845 207.031L127.342 207.081L126.845 207.031Z" stroke="black" stroke-opacity="0.2"/>
</svg>
