<svg width="235" height="234" viewBox="0 0 235 234" fill="none" xmlns="http://www.w3.org/2000/svg">
<path d="M138.572 4.72258C148.319 0.452487 157.132 0.144288 166.061 2.23842C186.173 6.97518 198.865 21.8463 199.138 41.404C199.422 61.9708 190.641 79.3343 174.829 93.957C166.154 101.983 156.05 108.299 145.161 113.673C143.546 114.463 141.848 116.304 141.541 117.867C137.868 136.94 134.196 156.014 131.06 175.147C129.305 185.857 128.434 196.684 127.342 207.481C127.127 209.584 127.717 211.747 128.034 214.974C133.033 213.017 137.618 211.826 141.498 209.609C155.906 201.405 170.047 192.803 184.361 184.47C195.049 178.243 205.753 172.029 216.676 166.129C220.048 164.308 224.049 163.228 227.921 162.39C238.813 160.043 247.48 163.955 251.147 173.52C253.566 179.811 254.419 186.565 256.269 193.053C256.952 195.443 258.094 197.85 259.648 199.859C261.846 202.696 262.749 205.371 260.572 208.419C258.569 211.225 254.109 212.715 250.707 210.812C247.573 209.067 244.426 206.511 242.797 203.634C240.369 199.333 239.223 194.425 237.602 189.757C236.792 187.423 236.092 185.047 235.471 182.657C234.649 179.485 232.648 178.525 229.545 180.162C219.778 185.285 209.87 190.194 200.417 195.744C184.456 205.108 169.028 215.241 152.879 224.348C146.324 228.047 138.731 230.804 131.191 232.439C118.656 235.178 109.492 229.217 106.955 217.852C104.618 207.425 105.882 196.955 107.588 186.629C110.805 167.098 114.589 147.655 118.122 128.169C118.365 126.805 118.498 125.413 118.727 123.594C113.116 124.711 108.01 125.828 102.874 126.705C88.097 129.236 73.2661 129.792 58.4024 127.178C41.3771 124.173 27.0251 116.743 15.075 105.542C-6.02627 85.7499 -3.60428 57.0351 20.6962 40.5111C33.0999 32.0724 46.9457 25.97 62.3995 23.8815C95.8513 19.3587 132.613 36.8068 140.328 72.5946C140.591 73.8321 140.933 75.0415 141.398 76.8766C152.574 67.5522 160.928 57.3076 165.218 44.6317C170.565 28.8187 168.477 22.87 153.899 12.9663C150.719 10.8083 147.079 9.18869 143.645 7.34243C142.353 6.66963 141.045 6.01094 138.572 4.72258ZM71.2309 105.339C86.1546 105.224 100.211 101.382 113.473 95.1637C123.253 90.5811 121.351 92.1658 120.349 83.407C119.105 72.4444 115.963 62.1001 106.682 54.0638C82.0354 32.6813 48.2162 38.1123 27.4871 57.5348C18.1773 66.2551 19.0167 79.4476 28.5293 88.4228C40.0705 99.2533 54.2404 105.062 71.2309 105.339Z" fill="white"/>
<path d="M174.829 93.957L174.49 93.5901C190.218 79.0448 198.92 61.8106 198.638 41.4114C198.368 22.1047 185.857 7.4147 165.946 2.72521C157.41 0.723148 148.997 0.940066 139.743 4.7673C140.538 5.17953 141.198 5.5195 141.78 5.81858L142.156 6.01159C142.788 6.33598 143.333 6.61623 143.876 6.89893L143.882 6.90197C144.891 7.44452 145.928 7.97205 146.972 8.50289C149.432 9.75429 151.928 11.0241 154.18 12.5524L154.18 12.5526C161.475 17.5087 165.767 21.549 167.501 26.4148C169.238 31.288 168.37 36.8718 165.692 44.7914L165.692 44.7916C161.362 57.5832 152.938 67.8996 141.718 77.2605L141.108 77.7692L140.913 76.9999C140.77 76.4342 140.637 75.9251 140.515 75.4545C140.244 74.413 140.022 73.5601 139.839 72.6991C132.194 37.2418 95.7423 19.8779 62.466 24.377C47.1037 26.4531 33.3301 32.5203 20.9772 40.9244L20.9771 40.9245C8.93441 49.1134 2.34897 60.2945 1.35811 71.8433C0.367312 83.3911 4.96445 95.3726 15.4172 105.177C27.298 116.313 41.5618 123.698 58.4894 126.686C73.2843 129.288 88.0558 128.736 102.79 126.212L102.79 126.212C106.388 125.598 109.966 124.866 113.724 124.098C115.322 123.771 116.952 123.438 118.63 123.104L119.31 122.969L119.223 123.657C119.159 124.17 119.101 124.652 119.046 125.112C118.91 126.263 118.79 127.27 118.614 128.256L118.614 128.257C117.524 134.271 116.41 140.279 115.296 146.285C112.8 159.75 110.305 173.207 108.081 186.71L108.081 186.71C106.376 197.031 105.129 207.417 107.443 217.742L107.443 217.742C108.687 223.316 111.544 227.522 115.586 230.008C119.629 232.496 124.916 233.298 131.085 231.95L131.085 231.95C138.583 230.325 146.127 227.584 152.633 223.912L152.633 223.912C161.88 218.698 170.866 213.161 179.862 207.619C186.587 203.476 193.317 199.33 200.164 195.313C207.3 191.123 214.699 187.296 222.087 183.475C224.5 182.226 226.912 180.979 229.313 179.719C229.313 179.719 229.313 179.719 229.313 179.719L229.545 180.162C232.648 178.525 234.649 179.485 235.471 182.657L174.829 93.957ZM174.829 93.957L174.49 93.5902C165.861 101.574 155.802 107.864 144.941 113.224C144.066 113.652 143.187 114.354 142.486 115.15C141.789 115.94 141.228 116.869 141.05 117.77L141.05 117.772L141.049 117.78C137.377 136.85 133.703 155.928 130.567 175.067L131.06 175.147L130.567 175.067C129.16 183.652 128.32 192.316 127.481 200.96C127.272 203.119 127.063 205.277 126.845 207.431M126.845 207.431C126.845 207.431 126.845 207.431 126.845 207.431L127.342 207.481L126.845 207.431Z" stroke="black" stroke-opacity="0.2"/>
</svg>
