<svg width="573" height="487" viewBox="0 0 573 487" fill="none" xmlns="http://www.w3.org/2000/svg">
<path d="M241.928 478.913C218.509 487.941 197.296 488.656 175.778 484.336C127.307 474.562 96.5893 443.483 95.7149 402.481C94.8025 359.363 115.75 322.89 153.653 292.109C174.448 275.214 198.703 261.894 224.858 250.541C228.736 248.872 232.804 244.999 233.526 241.721C242.156 201.702 250.786 161.683 258.123 121.546C262.229 99.078 264.206 76.3719 266.715 53.7255C267.209 49.3154 265.764 44.7861 264.966 38.022C252.953 42.1639 241.928 44.6967 232.614 49.375C198.018 66.6876 164.069 84.8345 129.702 102.415C104.041 115.556 78.3413 128.667 52.1097 141.123C44.0121 144.967 34.3939 147.261 25.0798 149.049C-1.11384 154.055 -22.0233 145.92 -30.9573 125.896C-36.8499 112.725 -38.9788 98.5714 -43.5028 84.9835C-45.1755 79.9775 -47.9506 74.9416 -51.7143 70.7401C-57.0367 64.8103 -59.2416 59.2083 -54.0333 52.8017C-49.2432 46.9017 -38.5224 43.7432 -30.3108 47.7063C-22.7455 51.3416 -15.1422 56.6755 -11.1884 62.6947C-5.29584 71.6936 -2.48252 81.9739 1.47123 91.7477C3.4481 96.6345 5.15884 101.611 6.67951 106.617C8.6944 113.262 13.5226 115.258 20.9739 111.802C44.4303 100.985 68.2287 90.6153 90.9248 78.9047C129.246 59.1487 166.274 37.7835 205.051 18.5639C220.79 10.7568 239.039 4.91639 257.173 1.43003C287.32 -4.41037 309.446 8.01541 315.681 31.824C321.421 53.6659 318.494 75.627 314.502 97.2901C306.975 138.262 298.079 179.056 289.791 219.939C289.221 222.799 288.917 225.719 288.384 229.533C301.88 227.15 314.16 224.766 326.515 222.888C362.061 217.465 397.759 216.184 433.571 221.548C474.591 227.716 509.224 243.181 538.117 266.572C589.136 307.902 583.623 368.124 525.305 402.957C495.538 420.747 462.273 433.649 425.093 438.149C344.611 447.893 255.918 411.599 236.948 336.627C236.301 334.035 235.465 331.502 234.324 327.658C207.523 347.295 187.526 368.839 177.337 395.448C164.64 428.643 169.734 441.099 204.938 461.749C212.617 466.248 221.399 469.616 229.686 473.459C232.804 474.86 235.959 476.231 241.928 478.913ZM402.929 267.436C367.003 267.794 333.206 275.959 301.348 289.1C277.854 298.784 282.416 295.447 284.925 313.802C288.042 336.776 295.722 358.439 318.152 375.216C377.724 419.853 459.08 408.202 508.768 367.319C531.084 348.964 528.917 321.311 505.917 302.568C478.012 279.952 443.835 267.883 402.929 267.436Z" fill="white"/>
<path d="M234.015 241.826L234.014 241.828C233.624 243.601 232.351 245.471 230.728 247.088C229.097 248.714 227.06 250.138 225.057 251C198.927 262.342 174.716 275.64 153.968 292.497L153.653 292.109L153.968 292.497C116.149 323.211 95.3065 359.548 96.2148 402.47C97.0828 443.174 127.566 474.104 175.877 483.846C196.966 488.08 217.747 487.459 240.622 478.874C238.167 477.774 236.216 476.907 234.535 476.163L233.607 475.752C232.092 475.08 230.783 474.5 229.481 473.916L229.476 473.913C227.008 472.769 224.488 471.663 221.96 470.554C216.041 467.957 210.084 465.344 204.685 462.18L204.685 462.18C187.086 451.857 176.87 443.509 172.713 433.495C168.546 423.457 170.517 411.88 176.87 395.27L177.337 395.448L176.87 395.27C187.106 368.536 207.186 346.922 234.029 327.255L234.602 326.835L234.804 327.516C235.158 328.71 235.484 329.78 235.784 330.767C236.447 332.942 236.986 334.712 237.432 336.505M234.015 241.826L6.67951 106.617C8.6944 113.262 13.5226 115.258 20.9739 111.802L21.1833 112.256C21.1834 112.256 21.1836 112.256 21.1837 112.256C26.9589 109.592 32.7568 106.955 38.5553 104.318C56.2946 96.2502 74.0392 88.1799 91.1539 79.3491C107.558 70.892 123.708 62.15 139.854 53.4101C161.466 41.7111 183.072 30.0157 205.273 19.0118L205.051 18.5639L205.274 19.0118C220.967 11.2276 239.171 5.40014 257.267 1.92104L257.268 1.9209C272.256 -0.98282 285.203 0.663104 295.159 5.95024C305.108 11.2335 312.113 20.1739 315.197 31.9506L315.197 31.9511C320.907 53.6768 318.001 75.5414 314.01 97.1995C308.806 125.53 302.947 153.771 297.087 182.022C294.473 194.623 291.858 207.226 289.301 219.839L289.301 219.841C288.891 221.895 288.617 223.988 288.301 226.395C288.174 227.361 288.041 228.378 287.889 229.464L287.794 230.145L288.471 230.026C292.498 229.315 296.414 228.604 300.254 227.907C309.298 226.265 317.924 224.7 326.59 223.383L326.591 223.383C362.099 217.965 397.745 216.687 433.497 222.042C474.432 228.197 508.982 243.628 537.802 266.961C563.211 287.544 574.486 312.78 572.215 337.154C569.942 361.534 554.107 385.172 525.049 402.528C495.332 420.288 462.133 433.163 425.033 437.652C384.881 442.514 342.687 435.889 308.176 418.709C273.669 401.531 246.874 373.817 237.432 336.505M234.015 241.826L234.018 241.812C242.646 201.799 251.277 161.778 258.615 121.636C261.903 103.641 263.828 85.4903 265.75 67.3616C266.23 62.8325 266.711 58.3047 267.212 53.7811M234.015 241.826L265.39 37.347M237.432 336.505C237.433 336.505 237.433 336.506 237.433 336.506L236.948 336.627M237.432 336.505C237.432 336.505 237.432 336.505 237.432 336.505L236.948 336.627M236.948 336.627C236.504 334.847 235.97 333.095 235.311 330.928C235.052 330.08 234.775 329.169 234.476 328.167C234.524 328.132 234.572 328.097 234.62 328.061L234.324 327.658L233.845 327.8C233.862 327.858 233.879 327.915 233.896 327.972L236.948 336.627ZM265.39 37.347L265.463 37.9634C265.74 40.3111 266.093 42.3778 266.419 44.2791C266.56 45.1071 266.697 45.9037 266.819 46.6785C267.22 49.2164 267.467 51.5063 267.212 53.7811M265.39 37.347L264.803 37.5493M265.39 37.347L264.803 37.5493M267.212 53.7811L266.715 53.7255L267.212 53.7805C267.212 53.7807 267.212 53.7809 267.212 53.7811ZM264.803 37.5493C260.873 38.9041 257.058 40.0839 253.364 41.226M264.803 37.5493L253.364 41.226M253.364 41.226C251.417 41.8282 249.504 42.4198 247.625 43.0211M253.364 41.226L247.625 43.0211M247.625 43.0211C242.197 44.7588 237.082 46.5711 232.389 48.9282L247.625 43.0211ZM402.935 266.936L402.924 266.936C366.924 267.295 333.064 275.477 301.158 288.637C299.501 289.32 297.981 289.939 296.588 290.507C293.059 291.945 290.35 293.048 288.304 294.011C285.471 295.345 283.775 296.466 282.948 297.956C282.113 299.461 282.223 301.232 282.636 303.645C282.77 304.433 282.939 305.296 283.126 306.256C283.523 308.289 284.004 310.755 284.429 313.87C287.557 336.919 295.276 358.73 317.852 375.616C377.641 420.415 459.253 408.707 509.086 367.705C520.351 358.439 525.472 346.79 524.835 335.062C524.199 323.343 517.818 311.622 506.233 302.181L506.232 302.18C478.232 279.486 443.943 267.385 402.935 266.936Z" stroke="black" stroke-opacity="0.2"/>
</svg>
