<svg width="262" height="233" viewBox="0 0 262 233" fill="none" xmlns="http://www.w3.org/2000/svg">
<path d="M124.169 228.524C114.442 232.83 105.63 233.172 96.6919 231.111C76.5578 226.449 63.7982 211.625 63.435 192.069C63.056 171.503 71.7571 154.107 87.5013 139.426C96.1392 131.367 106.214 125.014 117.079 119.599C118.69 118.803 120.379 116.956 120.679 115.392C124.264 96.3047 127.849 77.2173 130.896 58.073C132.602 47.3567 133.423 36.5267 134.465 25.7252C134.671 23.6217 134.07 21.4614 133.739 18.2352C128.749 20.2107 124.169 21.4188 120.3 23.6502C105.93 31.9077 91.8282 40.5631 77.5526 48.9485C66.8934 55.2162 56.2183 61.4698 45.3222 67.4106C41.9586 69.244 37.9634 70.3384 34.0945 71.1911C23.2141 73.5788 14.5287 69.6988 10.8177 60.148C8.37 53.866 7.48569 47.1151 5.6065 40.6342C4.91167 38.2465 3.75894 35.8445 2.19558 33.8406C-0.0152345 31.0123 -0.931119 28.3403 1.23232 25.2846C3.22205 22.4705 7.67524 20.964 11.0862 22.8543C14.2287 24.5882 17.387 27.1322 19.0293 30.0032C21.477 34.2954 22.6456 39.1987 24.2879 43.8604C25.109 46.1913 25.8197 48.5648 26.4513 50.9525C27.2883 54.1219 29.2938 55.0741 32.3889 53.4255C42.1323 48.2663 52.0177 43.3203 61.4453 37.7348C77.3631 28.3119 92.7441 18.1215 108.851 8.95438C115.389 5.2307 122.969 2.44504 130.502 0.782169C143.024 -2.00349 152.215 3.92316 154.805 15.279C157.189 25.6968 155.973 36.1714 154.315 46.504C151.189 66.0462 147.493 85.5032 144.051 105.003C143.814 106.367 143.687 107.76 143.466 109.579C149.072 108.442 154.173 107.305 159.305 106.41C174.07 103.823 188.899 103.212 203.774 105.77C220.813 108.712 235.199 116.089 247.201 127.245C268.393 146.958 266.103 175.682 241.879 192.296C229.514 200.781 215.697 206.935 200.253 209.081C166.822 213.729 129.98 196.418 122.101 160.659C121.832 159.423 121.485 158.215 121.011 156.381C109.878 165.747 101.572 176.023 97.3394 188.715C92.0651 204.547 94.1812 210.488 108.804 220.338C111.994 222.484 115.642 224.09 119.084 225.923C120.379 226.591 121.69 227.245 124.169 228.524ZM191.046 127.658C176.123 127.828 162.085 131.722 148.851 137.99C139.092 142.609 140.987 141.017 142.029 149.772C143.324 160.73 146.514 171.063 155.831 179.064C180.576 200.355 214.37 194.798 235.01 175.298C244.279 166.543 243.379 153.354 233.825 144.414C222.234 133.627 208.038 127.871 191.046 127.658Z" fill="white"/>
<path d="M45.0829 66.9716C41.7844 68.7695 37.847 69.852 33.9873 70.7028C28.6277 71.8789 23.8527 71.5021 19.9791 69.6935C16.1122 67.888 13.0975 64.6348 11.2837 59.9669L11.2836 59.9665C10.0734 56.8605 9.24687 53.6313 8.48596 50.3527C8.31573 49.6191 8.14864 48.8824 7.98118 48.1441C7.40245 45.5925 6.81934 43.0216 6.08672 40.4949L6.08659 40.4945C5.37642 38.054 4.19709 35.5933 2.5898 33.533L2.58951 33.5326C1.50385 32.1438 0.781356 30.8476 0.566746 29.5653C0.356347 28.3082 0.624929 27.0078 1.64039 25.5735L1.64058 25.5733C3.5063 22.9346 7.68943 21.5435 10.8438 23.2916L10.8447 23.2921C13.9468 25.0037 17.0165 27.4919 18.5949 30.2509C20.3489 33.3266 21.4289 36.6999 22.5257 40.1258C22.941 41.423 23.3587 42.7277 23.8163 44.0266C24.6322 46.3425 25.339 48.7029 25.9679 51.0803C26.404 52.7316 27.1787 53.9389 28.3753 54.4549C29.5707 54.9703 31.0174 54.7225 32.6239 53.8668C35.0191 52.5986 37.4249 51.3421 39.8319 50.0851C47.2023 46.2361 54.5832 42.3815 61.7 38.1651C68.5284 34.1228 75.2393 29.9515 81.9455 25.7831C90.9152 20.2077 99.8764 14.6376 109.099 9.38894L109.099 9.38885C115.588 5.69286 123.12 2.92379 130.609 1.27041L130.61 1.27024C136.772 -0.100524 142.063 0.681977 146.118 3.15442C150.171 5.62595 153.047 9.82142 154.317 15.3902L154.317 15.3905C156.679 25.7062 155.479 36.0968 153.822 46.4247L153.822 46.425C151.66 59.9354 149.227 73.4019 146.793 86.8757C145.707 92.8862 144.621 98.898 143.558 104.916L143.558 104.917C143.387 105.904 143.272 106.912 143.14 108.063C143.088 108.523 143.032 109.005 142.97 109.519L142.886 110.207L143.566 110.069C145.242 109.729 146.871 109.39 148.467 109.057C152.221 108.275 155.796 107.53 159.391 106.902L159.392 106.902C174.114 104.323 188.883 103.717 203.689 106.263C220.631 109.188 234.928 116.519 246.86 127.612C257.358 137.377 262.01 149.341 261.073 160.892C260.135 172.445 253.601 183.65 241.596 191.884L241.596 191.884C229.282 200.334 215.537 206.453 200.184 208.586C166.929 213.209 130.397 195.981 122.589 160.553C122.402 159.693 122.176 158.84 121.9 157.8C121.776 157.33 121.641 156.821 121.495 156.256L121.296 155.488L120.689 155.999C109.513 165.401 101.136 175.749 96.8651 188.557L96.8651 188.557C94.2235 196.486 93.3806 202.073 95.1401 206.94C96.8969 211.799 101.207 215.823 108.525 220.752L108.525 220.752C110.784 222.272 113.286 223.533 115.752 224.775C116.798 225.302 117.838 225.826 118.849 226.365L118.855 226.368C119.397 226.647 119.941 226.924 120.571 227.244L120.956 227.44C121.539 227.737 122.201 228.074 122.998 228.484C113.761 232.345 105.35 232.594 96.8047 230.624C76.872 226.009 64.2935 211.365 63.9349 192.06C63.559 171.662 72.1815 154.395 87.8423 139.791L87.5013 139.426L87.8423 139.791C96.4343 131.776 106.464 125.448 117.3 120.047C118.174 119.616 119.05 118.911 119.747 118.112C120.44 117.32 120.997 116.388 121.17 115.486L121.171 115.484L121.172 115.475C124.756 96.392 128.342 77.3008 131.39 58.1516L130.896 58.073C132.261 49.4998 133.059 40.8539 133.858 32.208C134.057 30.0467 134.257 27.8854 134.465 25.7252L134.963 25.7738C134.963 25.7736 134.963 25.7734 134.963 25.7732C135.071 24.6608 134.966 23.5471 134.799 22.3332C134.747 21.9592 134.69 21.5768 134.631 21.1805C134.496 20.2758 134.351 19.2987 134.236 18.1841L134.169 17.5273L133.555 17.7703C131.927 18.4147 130.352 18.9738 128.822 19.5172C128.011 19.8049 127.213 20.0882 126.427 20.3775C124.167 21.2079 122.023 22.0793 120.051 23.2167M45.0829 66.9716L45.3222 67.4106M45.0829 66.9716C45.0829 66.9716 45.0829 66.9716 45.0828 66.9716L45.3222 67.4106M45.0829 66.9716C55.971 61.0351 66.6395 54.7855 77.2992 48.5175L77.2994 48.5174C83.0165 45.1592 88.711 41.7545 94.408 38.3482C102.922 33.2576 111.442 28.1637 120.051 23.2167M45.3222 67.4106C41.9586 69.244 37.9634 70.3384 34.0945 71.1911M45.3222 67.4106C56.2183 61.4698 66.8934 55.2162 77.5526 48.9485L34.0945 71.1911M120.051 23.2167L120.3 23.6502L120.05 23.217C120.051 23.2169 120.051 23.2168 120.051 23.2167ZM34.0945 71.1911C23.2141 73.5788 14.5287 69.6988 10.8177 60.148C9.31834 56.2999 8.40562 52.2759 7.4915 48.2458C6.91332 45.6967 6.33458 43.1452 5.6065 40.6342C4.91167 38.2465 3.75894 35.8445 2.19558 33.8406C-0.0152345 31.0123 -0.931119 28.3403 1.23232 25.2846C3.22205 22.4705 7.67524 20.964 11.0862 22.8543C14.2287 24.5882 17.387 27.1322 19.0293 30.0032C20.8111 33.1278 21.9151 36.5763 23.0175 40.0196C23.4294 41.3063 23.8411 42.5923 24.2879 43.8604C25.109 46.1913 25.8197 48.5648 26.4513 50.9525L34.0945 71.1911ZM141.533 149.831C142.835 160.847 146.053 171.325 155.505 179.444C180.484 200.934 214.567 195.299 235.353 175.662C240.091 171.187 242.244 165.561 241.976 159.902C241.708 154.248 239.028 148.597 234.167 144.049L234.166 144.048C222.482 133.174 208.165 127.372 191.053 127.158L191.041 127.158L148.851 137.99L148.637 137.538C147.955 137.861 147.327 138.155 146.751 138.424C145.28 139.113 144.142 139.645 143.284 140.109C142.099 140.749 141.323 141.32 140.94 142.113C140.557 142.904 140.618 143.814 140.789 144.961C140.846 145.345 140.916 145.76 140.995 146.22C141.159 147.187 141.357 148.351 141.533 149.831ZM141.533 149.831L142.029 149.772L141.533 149.831C141.533 149.831 141.533 149.831 141.533 149.831Z" stroke="black" stroke-opacity="0.2"/>
</svg>
