<svg width="250" height="146" viewBox="0 0 250 146" fill="none" xmlns="http://www.w3.org/2000/svg">
<path d="M138.571 2.71104C148.318 0.0335404 157.132 -0.159715 166.06 1.15338C186.173 4.12351 198.864 13.4483 199.137 25.7116C199.421 38.6078 190.64 49.4954 174.828 58.6643C166.153 63.6971 156.049 67.6571 145.16 71.027C143.545 71.5223 141.847 72.6769 141.54 73.6565C137.868 85.6165 134.195 97.5766 131.059 109.574C129.304 116.289 128.433 123.078 127.341 129.848C127.126 131.167 127.717 132.523 128.033 134.546C133.032 133.319 137.618 132.573 141.497 131.183C155.905 126.038 170.046 120.644 184.36 115.42C195.048 111.514 205.752 107.618 216.676 103.919C220.048 102.777 224.048 102.1 227.921 101.574C238.812 100.103 247.479 102.556 251.146 108.553C253.565 112.498 254.418 116.733 256.268 120.801C256.951 122.3 258.093 123.809 259.647 125.069C261.845 126.848 262.749 128.525 260.571 130.436C258.568 132.196 254.108 133.13 250.706 131.937C247.572 130.842 244.425 129.24 242.796 127.436C240.368 124.739 239.222 121.661 237.601 118.735C236.791 117.271 236.091 115.781 235.471 114.283C234.648 112.293 232.647 111.692 229.544 112.718C219.777 115.93 209.869 119.008 200.416 122.489C184.455 128.36 169.027 134.714 152.878 140.424C146.323 142.744 138.73 144.473 131.19 145.498C118.655 147.215 109.491 143.477 106.954 136.351C104.617 129.813 105.882 123.248 107.587 116.773C110.804 104.527 114.589 92.3351 118.121 80.1163C118.364 79.2613 118.497 78.3883 118.726 77.2481C113.115 77.9479 108.009 78.6489 102.873 79.1984C88.0961 80.7858 73.2653 81.1343 58.4016 79.4954C41.3762 77.6109 27.0242 72.952 15.0741 65.9283C-6.02713 53.5181 -3.60514 35.5129 20.6953 25.1518C33.099 19.8604 46.9448 16.0339 62.3987 14.7244C95.8504 11.8884 132.612 22.829 140.327 45.2693C140.59 46.0453 140.932 46.8036 141.397 47.9543C152.573 42.1075 160.927 35.6838 165.217 27.7355C170.564 17.8202 168.476 14.0901 153.898 7.88013C150.718 6.527 147.078 5.51146 143.644 4.35379C142.352 3.93192 141.044 3.5189 138.571 2.71104ZM71.2301 65.8011C86.1537 65.7291 100.21 63.3201 113.472 59.421C123.253 56.5475 121.35 57.5412 120.348 52.0491C119.104 45.1751 115.962 38.6889 106.682 33.6498C82.0345 20.2422 48.2154 23.6476 27.4863 35.8262C18.1764 41.2942 19.0158 49.5664 28.5284 55.1942C40.0696 61.9853 54.2395 65.6277 71.2301 65.8011Z" fill="white"/>
</svg>
