<svg width="262" height="233" viewBox="0 0 262 233" fill="none" xmlns="http://www.w3.org/2000/svg">
<path d="M138.572 4.32194C148.319 0.0518557 157.133 -0.256349 166.061 1.83779C186.173 6.57455 198.865 21.4457 199.138 41.0033C199.422 61.5701 190.641 78.9337 174.829 93.5564C166.154 101.583 156.05 107.898 145.161 113.272C143.546 114.062 141.848 115.904 141.541 117.466C137.869 136.54 134.196 155.614 131.06 174.747C129.305 185.456 128.434 196.283 127.342 207.081C127.127 209.183 127.717 211.346 128.034 214.573C133.033 212.616 137.618 211.425 141.498 209.209C155.906 201.005 170.047 192.402 184.361 184.07C195.049 177.842 205.753 171.628 216.677 165.728C220.049 163.907 224.049 162.828 227.922 161.989C238.813 159.642 247.48 163.555 251.147 173.119C253.566 179.41 254.419 186.165 256.269 192.652C256.952 195.043 258.094 197.449 259.648 199.459C261.846 202.295 262.75 204.971 260.572 208.018C258.569 210.825 254.109 212.315 250.707 210.412C247.573 208.666 244.426 206.11 242.797 203.233C240.369 198.932 239.223 194.024 237.602 189.357C236.792 187.023 236.092 184.646 235.472 182.256C234.649 179.084 232.648 178.124 229.545 179.761C219.778 184.884 209.87 189.793 200.417 195.344C184.456 204.707 169.028 214.84 152.879 223.947C146.324 227.646 138.731 230.404 131.191 232.038C118.656 234.777 109.492 228.816 106.955 217.451C104.618 207.024 105.883 196.554 107.588 186.228C110.805 166.698 114.59 147.255 118.122 127.768C118.365 126.404 118.498 125.012 118.727 123.194C113.116 124.31 108.01 125.428 102.874 126.304C88.0971 128.836 73.2662 129.392 58.4025 126.778C41.3772 123.772 27.0252 116.342 15.0751 105.141C-6.02615 85.3492 -3.60417 56.6345 20.6963 40.1105C33.1 31.6718 46.9458 25.5693 62.3996 23.4808C95.8514 18.9581 132.613 36.4061 140.328 72.194C140.591 73.4315 140.933 74.6408 141.398 76.476C152.574 67.1515 160.928 56.9069 165.218 44.231C170.565 28.418 168.477 22.4694 153.899 12.5656C150.719 10.4076 147.079 8.78805 143.645 6.94181C142.353 6.26899 141.045 5.61031 138.572 4.32194ZM71.2311 104.938C86.1547 104.823 100.211 100.981 113.473 94.7631C123.254 90.1804 121.351 91.7651 120.349 83.0064C119.105 72.0438 115.963 61.6995 106.683 53.6631C82.0355 32.2806 48.2164 37.7117 27.4873 57.1341C18.1774 65.8544 19.0168 79.0469 28.5294 88.0222C40.0706 98.8526 54.2405 104.662 71.2311 104.938Z" fill="white"/>
<path d="M141.05 117.372L141.05 117.37C141.228 116.469 141.79 115.539 142.486 114.749C143.186 113.954 144.065 113.252 144.94 112.824C155.801 107.463 165.861 101.173 174.49 93.1895L174.804 93.5286L174.49 93.1895C190.218 78.6442 198.92 61.41 198.638 41.0108C198.368 21.704 185.857 7.01383 165.946 2.32448C157.41 0.322527 148.997 0.539507 139.743 4.36667C140.538 4.77889 141.198 5.11887 141.78 5.41794L142.16 5.61287C142.79 5.93648 143.334 6.21618 143.876 6.49831L143.882 6.50134C144.891 7.04389 145.928 7.57141 146.972 8.10225C149.432 9.35366 151.928 10.6235 154.18 12.1518L154.181 12.152C161.476 17.1081 165.767 21.1484 167.502 26.0141C169.239 30.8873 168.37 36.4712 165.692 44.3908L165.692 44.391C161.362 57.1826 152.938 67.499 141.718 76.8598L141.108 77.3686L140.913 76.5993C140.77 76.0337 140.638 75.5247 140.515 75.0542C140.244 74.0124 140.022 73.1594 139.839 72.2982C132.194 36.8411 95.7423 19.4773 62.4662 23.9763C47.1038 26.0525 33.3302 32.1196 20.9773 40.5238L20.9772 40.5239C8.93453 48.7127 2.3491 59.8939 1.35823 71.4426C0.367434 82.9905 4.96457 94.972 15.4173 104.776C27.2982 115.913 41.5621 123.297 58.4899 126.285C73.2846 128.887 88.0561 128.336 102.79 125.811L102.79 125.811C106.388 125.197 109.966 124.466 113.724 123.697C115.322 123.371 116.952 123.037 118.63 122.703L119.31 122.568L119.223 123.256C119.159 123.769 119.101 124.251 119.047 124.711C118.91 125.862 118.79 126.869 118.614 127.855L118.614 127.857C117.524 133.871 116.41 139.878 115.297 145.885C112.8 159.349 110.305 172.807 108.082 186.309L108.082 186.309C106.377 196.631 105.129 207.017 107.443 217.341L107.443 217.342C108.687 222.915 111.544 227.121 115.586 229.608C119.629 232.095 124.916 232.898 131.085 231.55L131.086 231.55C138.583 229.924 146.127 227.183 152.633 223.511L152.633 223.511C161.88 218.297 170.867 212.761 179.862 207.219C186.587 203.075 193.317 198.929 200.164 194.912C207.3 190.722 214.699 186.895 222.087 183.074C224.5 181.826 226.912 180.578 229.313 179.319C230.923 178.469 232.371 178.227 233.564 178.747C234.758 179.267 235.527 180.478 235.955 182.13C236.573 184.51 237.269 186.873 238.075 189.192C238.526 190.493 238.938 191.799 239.347 193.098C240.428 196.527 241.493 199.904 243.232 202.987L141.05 117.372ZM141.05 117.372L141.048 117.381C137.377 136.451 133.703 155.528 130.567 174.666C129.16 183.252 128.32 191.915 127.481 200.56C127.272 202.718 127.063 204.876 126.845 207.03M141.05 117.372L127.601 215.28M127.601 215.28L127.537 214.623C127.427 213.508 127.286 212.53 127.155 211.625C127.098 211.228 127.043 210.846 126.993 210.471C126.832 209.257 126.731 208.142 126.845 207.03M127.601 215.28L128.216 215.039M127.601 215.28L128.216 215.039M126.845 207.03L127.342 207.081L126.845 207.031C126.845 207.031 126.845 207.03 126.845 207.03ZM128.216 215.039C129.847 214.401 131.424 213.847 132.957 213.31C133.769 213.025 134.568 212.745 135.356 212.458C137.619 211.636 139.767 210.773 141.745 209.643M128.216 215.039L184.613 184.502M184.613 184.502L184.613 184.502C178.88 187.839 173.17 191.222 167.457 194.607C158.92 199.666 150.377 204.728 141.745 209.643M184.613 184.502C195.301 178.274 205.999 172.064 216.914 166.168C220.221 164.382 224.163 163.315 228.027 162.478C233.391 161.322 238.165 161.717 242.03 163.54C245.889 165.36 248.888 168.624 250.68 173.299L250.681 173.299M184.613 184.502L250.681 173.299M141.745 209.643L141.498 209.209L141.745 209.643C141.745 209.643 141.745 209.643 141.745 209.643ZM250.681 173.299C251.877 176.41 252.688 179.642 253.434 182.923C253.601 183.657 253.765 184.395 253.929 185.134C254.496 187.687 255.067 190.26 255.788 192.79L255.788 192.79M250.681 173.299L255.788 192.79M255.788 192.79C256.487 195.233 257.655 197.698 259.253 199.765L259.253 199.765M255.788 192.79L259.253 199.765M259.253 199.765C260.332 201.158 261.049 202.457 261.257 203.74C261.462 204.998 261.187 206.297 260.165 207.728L260.165 207.728M259.253 199.765L260.165 207.728M260.165 207.728C258.287 210.36 254.098 211.735 250.951 209.975L250.951 209.975M260.165 207.728L250.951 209.975M250.951 209.975C247.856 208.252 244.798 205.752 243.233 202.987L250.951 209.975ZM71.2225 105.438L71.2345 105.438C86.2438 105.323 100.371 101.458 113.685 95.2157C114.369 94.8955 114.998 94.6042 115.576 94.3366C117.05 93.6539 118.19 93.1258 119.05 92.6652C120.238 92.0293 121.017 91.461 121.404 90.6701C121.79 89.8806 121.733 88.9698 121.568 87.8223C121.513 87.4385 121.444 87.023 121.368 86.5628C121.208 85.5952 121.016 84.4304 120.846 82.9491C119.595 71.9286 116.425 61.4387 107.01 53.2853C82.1312 31.7014 48.0217 37.2091 27.1455 56.7694C22.3875 61.2262 20.2088 66.8442 20.4504 72.5043C20.6917 78.1591 23.3464 83.8197 28.1861 88.386L28.1871 88.3869C39.8213 99.3046 54.1111 105.16 71.2225 105.438Z" stroke="black" stroke-opacity="0.2"/>
</svg>
