<svg width="262" height="259" viewBox="0 0 262 259" fill="none" xmlns="http://www.w3.org/2000/svg">
<path d="M124.169 253.804C114.442 258.589 105.63 258.968 96.6919 256.678C76.5578 251.499 63.7982 235.028 63.435 213.299C63.056 190.448 71.7571 171.119 87.5013 154.806C96.1392 145.852 106.214 138.793 117.079 132.777C118.69 131.892 120.379 129.839 120.679 128.102C124.264 106.894 127.849 85.6857 130.896 64.4143C132.602 52.5073 133.423 40.474 134.465 28.4723C134.671 26.1352 134.07 23.7348 133.739 20.1501C128.749 22.3452 124.169 23.6875 120.3 26.1668C105.93 35.3417 91.8282 44.9589 77.5526 54.276C66.8934 61.2402 56.2183 68.1885 45.3222 74.7895C41.9586 76.8266 37.9634 78.0425 34.0945 78.9901C23.2141 81.6431 14.5287 77.3319 10.8177 66.7199C8.37 59.7399 7.48569 52.2389 5.6065 45.0379C4.91167 42.3848 3.75894 39.716 2.19558 37.4894C-0.0152345 34.3469 -0.931119 31.378 1.23232 27.9828C3.22205 24.856 7.67524 23.1821 11.0862 25.2824C14.2287 27.209 17.387 30.0357 19.0293 33.2257C21.477 37.9948 22.6456 43.4429 24.2879 48.6226C25.109 51.2124 25.8197 53.8496 26.4513 56.5026C27.2883 60.0242 29.2938 61.0822 32.3889 59.2504C42.1323 53.518 52.0177 48.0225 61.4453 41.8163C77.3631 31.3464 92.7441 20.0238 108.851 9.8381C115.389 5.70067 122.969 2.60549 130.502 0.757858C143.024 -2.33732 152.215 4.24785 154.805 16.8654C157.189 28.4408 155.973 40.0793 154.315 51.5598C151.189 73.2735 147.493 94.8923 144.051 116.559C143.814 118.075 143.687 119.622 143.466 121.644C149.072 120.38 154.173 119.117 159.305 118.122C174.07 115.248 188.899 114.569 203.774 117.411C220.813 120.68 235.199 128.876 247.201 141.273C268.393 163.176 266.103 195.091 241.879 213.551C229.514 222.979 215.697 229.817 200.253 232.201C166.822 237.365 129.98 218.131 122.101 178.399C121.832 177.025 121.485 175.683 121.011 173.646C109.878 184.052 101.572 195.47 97.3394 209.572C92.0651 227.164 94.1812 233.765 108.804 244.708C111.994 247.093 115.642 248.877 119.084 250.914C120.379 251.657 121.69 252.383 124.169 253.804ZM191.046 141.731C176.123 141.92 162.085 146.247 148.851 153.211C139.092 158.343 140.987 156.575 142.029 166.302C143.324 178.478 146.514 189.958 155.831 198.849C180.576 222.505 214.37 216.331 235.01 194.664C244.279 184.937 243.379 170.282 233.825 160.349C222.234 148.363 208.038 141.967 191.046 141.731Z" fill="white"/>
<path d="M45.0632 74.3618C41.7675 76.3577 37.8339 77.5594 33.976 78.5043C28.6258 79.8089 23.863 79.3907 19.9978 77.3855C16.1355 75.3818 13.111 71.7633 11.2897 66.5548L11.2895 66.5544C10.0771 63.097 9.24947 59.5035 8.48834 55.8595C8.31788 55.0434 8.15065 54.2242 7.9831 53.4034C7.40447 50.5688 6.82213 47.716 6.0903 44.9116L6.09019 44.9112C5.3828 42.2102 4.20759 39.4849 2.60479 37.2021L2.60452 37.2017C1.51834 35.6578 0.786208 34.2049 0.568027 32.7564C0.352744 31.3271 0.631066 29.8568 1.65399 28.2515L1.65415 28.2512C3.53391 25.2973 7.69999 23.7845 10.824 25.7082L10.8249 25.7087C13.923 27.6081 16.999 30.3748 18.5845 33.454C20.3424 36.8793 21.4261 40.6402 22.5238 44.4497C22.9386 45.8893 23.3553 47.3358 23.8113 48.7737C24.628 51.3497 25.3355 53.9748 25.9649 56.6184C26.3954 58.4296 27.1588 59.7607 28.3573 60.335C29.5715 60.9167 31.0365 60.6317 32.6429 59.6811C35.0381 58.2719 37.444 56.8759 39.8511 55.4791C47.2216 51.2023 54.603 46.9192 61.72 42.2341C68.5488 37.7425 75.2598 33.1076 81.9659 28.476C90.9355 22.2813 99.8963 16.0925 109.119 10.2607L109.119 10.2606C115.606 6.1548 123.136 3.07948 130.621 1.24346L130.622 1.24325C136.771 -0.276727 142.049 0.59 146.098 3.3333C150.152 6.08007 153.04 10.7526 154.315 16.966L154.315 16.9663C156.681 28.4492 155.478 40.012 153.82 51.4884L153.82 51.4886C151.659 66.5014 149.225 81.4661 146.791 96.4377C145.705 103.115 144.619 109.795 143.557 116.48L143.557 116.481C143.386 117.575 143.271 118.69 143.14 119.967C143.087 120.479 143.032 121.016 142.969 121.589L142.893 122.285L143.576 122.131C145.253 121.753 146.883 121.376 148.479 121.006C152.233 120.137 155.807 119.309 159.4 118.613L159.401 118.613C174.119 115.748 188.881 115.074 203.68 117.902C220.611 121.15 234.906 129.292 246.842 141.62C267.827 163.31 265.56 194.876 241.576 213.154L241.576 213.154C229.261 222.543 215.52 229.338 200.176 231.707C166.969 236.837 130.412 217.731 122.591 178.303C122.405 177.349 122.18 176.406 121.904 175.251C121.779 174.728 121.644 174.162 121.498 173.532L121.302 172.689L120.669 173.28C109.493 183.728 101.125 195.218 96.8605 209.428L96.8605 209.428C94.2194 218.237 93.3865 224.415 95.1348 229.788C96.8836 235.162 101.181 239.628 108.505 245.109L108.505 245.109C110.764 246.798 113.267 248.199 115.734 249.579C116.779 250.165 117.819 250.746 118.83 251.345L118.836 251.348C119.379 251.66 119.926 251.969 120.559 252.326L120.937 252.54C121.548 252.886 122.246 253.281 123.094 253.766C113.82 258.104 105.386 258.39 96.8165 256.194C76.9103 251.073 64.2946 234.805 63.9349 213.29C63.5584 190.588 72.197 171.383 87.861 155.153L87.5013 154.806L87.8611 155.153C96.4549 146.245 106.486 139.215 117.32 133.215C118.195 132.734 119.07 131.951 119.764 131.068C120.455 130.189 121.003 129.166 121.172 128.187L121.172 128.186L134.465 28.4723L134.963 28.5161C134.963 28.5159 134.963 28.5158 134.963 28.5156C135.071 27.2924 134.966 26.065 134.8 24.7177C134.748 24.3041 134.692 23.8803 134.633 23.4405C134.498 22.4343 134.352 21.3448 134.237 20.1041L134.173 19.413L133.538 19.6924C131.91 20.4082 130.337 21.0291 128.806 21.6327C127.996 21.9524 127.198 22.2673 126.41 22.589C124.15 23.5121 122.004 24.4811 120.03 25.7458C111.421 31.2424 102.902 36.9023 94.3877 42.5584C88.6907 46.3431 82.9963 50.1261 77.2794 53.8573L77.2792 53.8574C66.6194 60.8219 55.9511 67.7658 45.0632 74.3618ZM45.0632 74.3618L45.3222 74.7895M45.0632 74.3618C45.0632 74.3618 45.0631 74.3618 45.0631 74.3618L45.3222 74.7895M45.3222 74.7895C41.9586 76.8266 37.9634 78.0425 34.0945 78.9901L77.5526 54.276C66.8934 61.2402 56.2183 68.1885 45.3222 74.7895ZM191.053 141.23L191.04 141.231C176.021 141.421 161.905 145.776 148.618 152.769C147.937 153.127 147.309 153.453 146.733 153.753C145.261 154.518 144.123 155.11 143.264 155.625C142.073 156.341 141.306 156.973 140.931 157.834C140.561 158.684 140.617 159.666 140.788 160.941C140.844 161.364 140.915 161.824 140.993 162.334C141.157 163.409 141.356 164.708 141.532 166.356C142.832 178.578 146.043 190.2 155.486 199.211C180.476 223.101 214.587 216.828 235.372 195.009C244.851 185.062 243.899 170.101 234.186 160.002L234.185 160.001C222.504 147.923 208.182 141.469 191.053 141.23Z" stroke="black" stroke-opacity="0.2"/>
</svg>
